<?xml version="1.0" standalone="no"?>
<!DOCTYPE svg PUBLIC "-//W3C//DTD SVG 20010904//EN"
 "http://www.w3.org/TR/2001/REC-SVG-20010904/DTD/svg10.dtd">
<svg version="1.0" xmlns="http://www.w3.org/2000/svg"
 width="1900.000000pt" height="838.000000pt" viewBox="0 0 1900.000000 838.000000"
 preserveAspectRatio="xMidYMid meet">
<metadata>
Created by potrace 1.16, written by Peter Selinger 2001-2019
</metadata>
<g transform="translate(0.000000,838.000000) scale(0.100000,-0.100000)"
fill="#000000" stroke="none">
<path d="M9420 8033 c-13 -3 -67 -22 -120 -43 -177 -70 -375 -137 -442 -150
-105 -19 -103 -15 -103 -259 0 -238 -2 -246 -98 -342 -41 -41 -57 -66 -63 -94
-4 -22 -2 -154 4 -295 9 -218 9 -257 -4 -270 -12 -13 -16 -13 -28 0 -11 12
-12 40 -6 150 5 74 6 187 3 250 -8 157 8 211 83 288 31 31 60 65 65 74 12 21
12 458 0 458 -5 0 -70 -29 -145 -65 -115 -54 -136 -68 -137 -87 -1 -13 0 -106
1 -208 2 -184 2 -185 29 -227 27 -41 28 -45 34 -245 11 -313 9 -374 -8 -388
-8 -6 -18 -9 -23 -6 -6 4 -8 122 -5 298 l5 293 -33 49 -33 49 -4 184 c-3 101
-8 183 -12 183 -5 0 -36 -21 -70 -47 -85 -64 -104 -106 -98 -222 5 -103 19
-133 93 -204 30 -29 59 -65 66 -82 7 -19 14 -117 17 -258 5 -238 1 -265 -34
-236 -15 12 -16 29 -9 169 13 239 11 283 -20 345 -14 30 -45 71 -69 92 -62 55
-76 88 -76 179 l0 77 -42 -7 c-112 -18 -146 -41 -97 -66 43 -24 59 -68 59
-168 0 -112 7 -128 93 -208 78 -73 83 -86 92 -275 5 -119 4 -137 -11 -150 -14
-11 -18 -11 -29 5 -11 14 -12 51 -8 160 3 79 3 155 -1 170 -4 15 -42 64 -85
109 l-79 82 -4 107 c-3 105 -4 108 -35 139 -23 24 -37 30 -55 26 -23 -6 -299
-255 -306 -277 -2 -6 4 -20 14 -31 15 -17 31 -19 138 -19 95 0 130 -4 161 -19
44 -19 158 -140 174 -185 6 -14 14 -76 17 -136 7 -114 0 -145 -32 -133 -12 4
-14 24 -8 119 7 109 6 115 -19 167 -27 54 -72 97 -137 133 -28 15 -57 19 -140
20 -138 1 -134 0 -171 31 l-32 27 -21 -25 c-11 -14 -44 -53 -73 -87 -64 -77
-72 -98 -44 -126 20 -19 35 -21 172 -26 l151 -5 33 -36 c20 -23 35 -52 40 -77
11 -66 23 -75 101 -76 56 -1 69 -4 72 -18 5 -24 -26 -29 -92 -14 -72 17 -93
37 -111 107 -22 84 -33 89 -197 89 -143 0 -170 6 -199 43 -16 20 -17 19 -43
-19 -14 -21 -26 -48 -26 -60 0 -15 62 -81 200 -216 110 -106 200 -199 200
-206 0 -42 -41 -10 -211 163 -174 177 -214 213 -226 202 -8 -8 -73 -189 -73
-203 0 -10 16 -14 62 -14 l61 0 115 -115 c63 -63 122 -116 131 -117 9 -1 43
-2 76 -2 44 -1 60 -5 60 -15 0 -28 -30 -35 -91 -22 -55 13 -66 20 -164 117
-58 56 -118 108 -133 113 -41 16 -124 14 -130 -3 -3 -7 -8 -33 -12 -57 l-7
-44 54 3 c65 4 111 -23 178 -105 69 -83 130 -108 229 -92 45 7 58 6 71 -7 26
-26 -10 -43 -78 -38 -121 10 -120 10 -222 109 -85 83 -101 94 -142 100 -84 13
-90 6 -101 -116 l-5 -57 84 -4 c81 -4 86 -6 122 -40 61 -59 71 -61 212 -54
131 7 145 4 132 -32 -3 -10 -31 -12 -136 -6 -72 3 -140 11 -151 16 -11 6 -36
26 -56 44 -39 38 -104 53 -173 40 -41 -8 -43 -17 -24 -110 l11 -58 259 3 c191
2 261 0 270 -9 30 -30 -8 -34 -296 -33 l-286 2 -25 -27 c-14 -15 -25 -31 -25
-37 0 -7 101 -8 304 -4 269 5 306 4 317 -10 28 -33 -7 -38 -202 -30 -101 4
-235 6 -297 5 -114 -3 -114 -3 -142 -35 -16 -18 -34 -49 -39 -70 -13 -44 -15
-153 -3 -153 4 0 41 34 82 76 41 41 87 82 102 90 34 18 472 37 501 22 10 -5
17 -17 15 -26 -3 -16 -25 -17 -244 -13 -201 3 -246 1 -270 -12 -16 -8 -66 -50
-112 -92 -83 -78 -83 -78 -80 -124 l3 -46 59 -3 c79 -4 101 7 169 83 104 116
101 115 288 126 144 9 164 8 178 -6 15 -15 14 -18 -4 -31 -14 -10 -33 -14 -60
-10 -130 18 -193 18 -251 1 -51 -15 -69 -27 -134 -95 -41 -42 -85 -82 -97 -89
-12 -6 -49 -11 -82 -11 -60 0 -61 -1 -61 -27 0 -45 18 -96 52 -148 29 -46 32
-56 30 -122 -1 -57 3 -83 23 -127 16 -36 25 -75 25 -106 0 -53 8 -60 35 -33
31 30 35 63 35 265 l0 201 96 98 c53 54 112 105 130 114 24 11 68 16 151 18
112 2 118 1 118 -18 0 -19 -7 -20 -125 -21 -69 0 -131 -1 -139 -2 -19 -3 -170
-151 -187 -184 -11 -20 -14 -72 -14 -210 0 -200 -7 -242 -46 -279 -45 -42 -47
-54 -23 -136 12 -41 28 -77 36 -80 7 -3 65 48 136 120 144 145 153 164 142
303 -10 121 15 165 113 195 61 18 67 30 64 125 -2 77 -1 84 17 84 25 0 31 -29
21 -102 -11 -78 -33 -107 -101 -135 -85 -34 -89 -43 -89 -197 l0 -131 -147
-142 -147 -141 24 -35 c99 -137 266 -356 273 -357 4 0 7 61 7 135 l0 135 38
38 c40 40 74 52 143 52 52 0 79 35 79 102 0 76 22 112 138 226 60 59 114 118
121 131 9 16 11 43 7 82 -7 61 3 81 29 59 20 -16 19 -55 -2 -116 -13 -39 -39
-72 -131 -164 -63 -63 -118 -125 -123 -138 -5 -13 -9 -47 -9 -77 0 -42 -5 -60
-25 -83 -33 -40 -83 -62 -139 -62 -36 0 -52 -6 -71 -25 -25 -24 -25 -26 -25
-207 0 -202 3 -214 62 -244 17 -9 67 -19 111 -22 l80 -5 -7 49 c-5 31 -19 66
-39 94 -31 44 -32 48 -32 147 0 97 1 104 26 128 14 14 49 32 80 40 76 20 89
40 89 135 0 43 5 91 10 106 6 15 59 77 117 137 l106 110 -5 88 c-4 64 -2 94 8
106 10 15 15 16 26 5 17 -17 11 -144 -8 -192 -8 -19 -57 -75 -108 -125 -103
-100 -116 -128 -116 -245 0 -97 -25 -128 -125 -154 -67 -17 -76 -36 -73 -152
3 -86 5 -93 36 -128 27 -31 32 -45 32 -87 l0 -50 63 -28 c34 -16 79 -43 101
-60 50 -40 105 -55 174 -46 l54 7 -3 201 c-4 256 6 290 110 384 l46 42 0 258
c0 142 -3 279 -7 304 -8 54 10 94 33 72 10 -10 12 -77 11 -290 -3 -331 -7
-348 -89 -432 -30 -31 -59 -64 -64 -73 -5 -9 -9 -113 -9 -230 l0 -214 28 -10
c18 -7 36 -26 48 -50 26 -52 101 -90 211 -106 45 -7 86 -9 90 -5 4 4 -13 28
-38 53 l-44 45 -5 319 -5 318 -25 27 -25 27 -6 301 c-3 166 -4 308 -1 315 6
18 30 15 40 -5 4 -10 5 -144 1 -298 l-7 -280 29 -67 29 -66 0 -283 0 -284 32
-46 c46 -69 60 -74 113 -48 25 12 68 44 97 70 l52 49 -44 23 c-76 40 -81 59
-78 302 2 201 1 212 -21 258 -12 26 -42 64 -65 84 -24 21 -48 47 -54 58 -6 12
-13 125 -18 271 -6 220 -5 251 9 262 33 27 39 -17 35 -266 -3 -272 -5 -265 88
-364 l54 -57 0 -233 c0 -275 2 -281 73 -286 56 -4 222 40 251 66 59 54 106
165 106 254 l0 48 -111 0 c-97 0 -117 3 -151 22 -56 32 -68 61 -68 168 0 50
-5 101 -11 113 -7 12 -44 56 -84 97 -83 86 -81 78 -89 291 -4 96 -1 131 9 145
11 16 15 16 29 5 15 -13 16 -33 10 -187 l-7 -173 85 -88 85 -88 6 -110 c3 -60
9 -118 13 -128 12 -31 53 -38 205 -36 160 3 141 8 253 -67 101 -69 217 -50
265 43 6 12 11 44 11 70 0 48 -1 50 -97 150 -120 124 -122 125 -346 121 -153
-3 -165 -2 -215 21 -57 26 -155 123 -177 176 -15 35 -30 253 -20 284 8 26 31
27 43 4 5 -11 5 -66 0 -132 -12 -147 -3 -174 89 -256 l67 -60 86 -6 c47 -4
132 -4 190 -2 141 8 173 -6 282 -122 44 -47 85 -85 91 -85 15 0 0 166 -18 204
-9 17 -57 75 -108 129 l-93 97 -123 0 c-173 0 -205 17 -237 128 -18 61 -34 72
-104 72 -37 0 -52 4 -57 16 -14 38 47 39 118 3 41 -21 63 -50 78 -105 22 -77
37 -84 198 -84 l128 0 66 -71 c43 -46 72 -70 82 -66 8 3 22 34 32 70 25 94 18
103 -88 109 -128 8 -149 29 -155 158 l-3 85 -96 91 c-61 56 -94 95 -89 102 13
22 44 12 67 -20 13 -18 48 -60 79 -94 63 -68 81 -115 77 -200 -3 -76 8 -84
113 -84 l88 0 5 93 c4 86 3 93 -17 107 -11 8 -80 72 -151 141 -72 70 -142 130
-155 133 -14 3 -40 5 -59 3 -36 -2 -47 9 -32 32 7 11 18 11 62 1 49 -12 65
-24 179 -135 112 -109 162 -147 176 -132 3 3 6 22 7 43 2 38 -3 44 -130 167
l-132 128 -81 -2 c-90 -2 -120 11 -86 37 13 9 33 12 60 8 105 -15 115 -21 245
-147 l126 -122 3 52 c4 61 -14 102 -57 134 -16 12 -43 41 -60 64 -19 26 -49
52 -77 65 -41 20 -57 22 -140 17 -72 -4 -96 -2 -104 8 -7 8 -9 19 -5 25 7 11
100 12 188 1 56 -7 60 -9 151 -100 l94 -93 6 48 c3 27 8 88 12 136 l6 88 -224
-7 c-174 -5 -227 -3 -233 6 -19 31 14 36 240 32 l225 -3 0 41 0 41 -97 -5
c-358 -18 -363 -17 -363 16 0 23 -20 21 241 19 132 -1 219 2 223 8 3 5 -4 22
-15 37 l-22 27 -203 -8 c-159 -5 -207 -4 -219 6 -12 10 -13 16 -3 27 9 12 45
13 215 7 l203 -7 0 74 c0 72 -1 73 -18 53 -9 -12 -27 -27 -40 -33 -23 -12
-325 -32 -350 -23 -7 2 -12 14 -10 26 3 21 6 21 173 17 165 -3 171 -2 205 21
19 13 44 41 54 62 19 38 35 176 21 176 -4 0 -46 -41 -94 -92 l-87 -92 -120 -7
c-131 -9 -157 -5 -152 19 3 15 19 17 123 17 112 0 123 2 165 27 43 25 114 99
138 144 8 15 13 128 16 335 l4 314 27 50 c26 48 26 54 19 140 -9 110 -9 202 1
277 8 63 -9 188 -28 200 -7 4 -48 8 -92 8 -93 0 -137 -18 -172 -70 -22 -31
-23 -43 -23 -205 0 -162 -1 -174 -22 -205 -37 -53 -67 -70 -141 -77 -92 -8
-100 -16 -104 -99 -2 -38 -6 -80 -9 -93 -3 -13 -49 -67 -102 -119 -136 -133
-142 -143 -142 -218 0 -44 -4 -63 -14 -67 -25 -10 -36 17 -30 69 10 72 23 91
132 195 54 52 105 105 112 119 7 14 16 60 20 103 6 62 12 83 30 102 26 28 76
45 133 45 94 0 108 34 106 239 -2 150 -1 160 22 201 13 24 41 57 62 74 37 29
45 31 138 34 l99 4 0 42 c0 68 -27 142 -65 181 -53 52 -151 75 -245 58z m-255
-363 c0 -87 1 -90 33 -122 32 -34 32 -34 32 -139 0 -102 -1 -106 -27 -131 -34
-31 -58 -43 -102 -52 -61 -11 -71 -28 -71 -124 0 -113 -19 -152 -120 -244 -43
-39 -84 -84 -91 -100 -7 -17 -10 -57 -7 -103 5 -72 -3 -98 -26 -89 -7 3 -10
27 -9 62 1 31 2 73 2 92 1 30 14 49 91 130 126 132 123 127 130 243 6 96 7
101 38 128 19 17 49 32 74 35 23 4 52 17 65 30 21 21 23 32 23 121 0 96 -1 99
-34 140 -29 37 -34 51 -40 124 -5 57 -3 85 5 96 23 27 34 -5 34 -97z m-152
-32 c6 -26 0 -142 -9 -172 -3 -12 -31 -47 -63 -79 l-56 -58 -1 -138 c0 -130
-2 -140 -26 -182 -15 -24 -47 -61 -73 -83 -79 -65 -85 -81 -78 -217 5 -89 3
-122 -7 -134 -10 -12 -16 -13 -28 -3 -12 11 -13 32 -8 132 4 66 12 129 18 141
6 11 39 47 73 80 81 79 95 119 95 274 0 131 2 136 84 214 l49 46 -6 89 c-4 60
-2 93 6 101 16 16 24 14 30 -11z m595 -716 c-53 -53 -101 -107 -107 -119 -6
-12 -11 -73 -11 -140 0 -99 -3 -123 -20 -150 -20 -34 -56 -56 -106 -67 -48
-11 -65 -36 -63 -90 3 -55 -13 -78 -37 -54 -12 12 -15 26 -10 53 10 53 60 103
126 124 74 24 80 38 80 187 0 117 1 122 29 160 40 55 200 208 208 200 4 -4
-36 -50 -89 -104z m-203 14 c-11 -56 -45 -99 -93 -116 -65 -24 -78 -41 -91
-111 -15 -86 -43 -114 -135 -134 -49 -10 -75 -11 -88 -4 -37 20 -13 34 70 39
99 6 109 14 128 106 17 80 31 98 93 120 65 24 84 49 77 97 -8 48 9 76 31 54
10 -10 12 -25 8 -51z m-299 -522 l34 -35 0 -535 c0 -587 1 -577 -60 -609 -25
-13 -104 -15 -555 -15 -578 0 -562 -2 -599 60 -14 25 -16 85 -16 555 0 361 3
533 11 548 6 12 23 32 37 44 l27 23 544 0 544 0 33 -36z m-1041 -1329 c0 -18
-7 -20 -65 -20 -36 -1 -73 -2 -82 -3 -26 -3 -186 -166 -194 -197 -4 -15 -2
-61 4 -102 11 -80 8 -103 -14 -103 -24 0 -31 34 -24 122 9 106 22 128 129 231
84 80 121 97 206 94 33 -2 40 -6 40 -22z m319 7 c-1 -6 -2 -71 -2 -143 l-2
-130 -56 -59 c-60 -63 -77 -107 -68 -170 5 -31 -1 -44 -46 -103 -51 -67 -81
-82 -88 -45 -2 11 11 26 37 42 57 36 75 67 68 117 -8 61 7 96 69 161 l57 59
-7 127 c-4 70 -4 136 0 145 7 20 40 19 38 -1z"/>
<path d="M8003 6375 l-23 -16 0 -523 c0 -475 2 -525 17 -537 21 -18 976 -27
1035 -9 31 9 38 16 43 43 3 18 5 256 3 529 -2 391 -6 500 -16 510 -10 10 -121
14 -525 16 -453 2 -515 1 -534 -13z m625 -88 c6 -7 12 -32 14 -56 4 -64 26
-73 89 -38 36 20 54 25 67 18 25 -13 112 -108 112 -122 0 -6 -9 -24 -21 -40
-23 -32 -22 -78 1 -90 8 -4 33 -11 55 -16 l40 -8 3 -94 c2 -58 -1 -98 -8 -106
-7 -8 -32 -15 -57 -17 -66 -4 -76 -25 -40 -89 33 -60 30 -67 -50 -137 l-57
-50 -35 29 c-38 31 -72 37 -88 17 -6 -7 -13 -31 -16 -53 -9 -54 -27 -65 -115
-65 -96 0 -112 9 -112 63 0 73 -32 85 -97 38 l-40 -29 -67 67 c-36 36 -66 70
-66 75 0 5 11 24 25 42 42 55 29 94 -32 94 -55 0 -73 28 -73 113 0 87 11 105
65 114 22 3 46 10 53 16 21 17 13 52 -21 92 l-34 39 61 54 c84 73 85 74 135
51 24 -10 50 -19 57 -19 16 0 34 39 34 74 0 12 5 27 12 34 17 17 192 16 206
-1z"/>
<path d="M8453 6258 c-4 -7 -10 -31 -13 -52 -4 -32 -12 -44 -38 -59 l-34 -20
-45 32 -46 33 -56 -56 -55 -56 33 -34 c27 -28 32 -40 27 -61 -11 -42 -51 -77
-81 -69 -41 10 -55 -10 -55 -82 0 -60 2 -65 26 -74 14 -6 36 -10 49 -10 25 0
47 -25 59 -67 5 -17 -2 -32 -30 -63 l-37 -41 56 -56 56 -56 40 36 c45 40 52
43 84 25 30 -16 46 -39 47 -66 0 -50 16 -62 83 -62 73 0 87 10 87 62 0 32 5
41 33 58 17 11 34 20 37 20 5 0 47 -27 82 -52 15 -11 24 -6 63 32 49 48 59 89
27 112 -31 22 -33 36 -12 78 17 33 25 40 51 40 58 0 69 14 69 85 0 71 -11 85
-69 85 -24 0 -34 7 -46 30 -22 42 -19 73 10 100 14 13 25 29 25 35 0 6 -17 30
-38 53 -42 45 -79 55 -102 26 -28 -32 -48 -35 -90 -14 -36 18 -40 24 -40 58 0
21 -5 43 -12 50 -16 16 -134 16 -145 0z m135 -253 c49 -21 81 -52 103 -100 24
-51 23 -89 0 -141 -35 -77 -128 -124 -206 -103 -175 47 -184 280 -14 348 36
14 75 13 117 -4z"/>
<path d="M8485 5983 c-64 -17 -105 -76 -105 -150 0 -90 60 -147 154 -146 84 1
140 60 140 148 0 58 -17 91 -65 128 -27 19 -89 30 -124 20z"/>
<path d="M10033 8031 c-107 -27 -146 -105 -179 -365 -15 -116 -16 -142 -4
-190 11 -46 11 -71 0 -146 -18 -122 -8 -280 29 -453 21 -104 26 -148 20 -175
-20 -88 -21 -213 -4 -405 16 -165 17 -212 7 -304 -15 -133 -15 -295 -2 -416
19 -167 27 -576 13 -632 -14 -53 -11 -81 15 -157 16 -45 15 -48 -11 -115 -41
-104 -50 -150 -50 -253 0 -110 15 -172 48 -206 20 -20 34 -24 83 -24 67 0 102
11 222 68 46 23 85 40 86 39 1 -1 6 -36 12 -79 23 -152 77 -246 164 -283 127
-54 147 -66 212 -130 93 -91 136 -110 251 -110 116 0 174 25 245 102 55 60 45
58 155 32 68 -16 117 -1 191 56 68 53 133 75 222 75 36 0 83 5 106 12 58 17
121 87 181 197 28 51 80 130 117 175 166 202 196 267 207 441 5 69 13 121 23
141 9 16 23 64 32 105 8 41 26 105 40 142 35 93 56 219 56 341 0 159 -28 244
-117 353 l-47 58 3 145 c6 314 -76 600 -227 800 -67 88 -477 490 -533 523 -24
14 -66 31 -93 37 -69 15 -88 28 -136 88 -98 125 -368 253 -795 377 -49 14
-162 50 -250 80 -166 55 -237 69 -292 56z m107 -91 c36 -6 151 -40 255 -75
105 -35 256 -85 337 -110 104 -33 204 -75 347 -146 214 -105 218 -108 267
-214 13 -27 41 -56 84 -88 152 -111 202 -167 280 -318 56 -107 131 -184 229
-234 96 -48 152 -106 232 -240 105 -175 114 -222 99 -472 -12 -212 -29 -296
-80 -399 -36 -73 -148 -214 -170 -214 -5 0 0 26 12 58 16 43 20 81 20 157 0
117 -16 177 -98 364 -36 80 -52 127 -45 134 31 31 72 -62 132 -293 53 -207 77
-263 100 -230 13 19 6 63 -37 238 -38 157 -87 279 -129 323 -49 52 -135 31
-135 -32 0 -16 29 -96 65 -179 36 -82 72 -180 81 -218 29 -121 6 -239 -71
-363 -34 -55 -46 -109 -24 -109 12 0 53 41 84 83 l20 27 92 -45 c101 -50 182
-116 225 -184 55 -87 29 -191 -65 -258 -31 -23 -55 -53 -81 -102 -43 -81 -90
-126 -148 -141 -71 -18 -86 -27 -98 -64 -8 -27 -17 -36 -38 -38 -23 -3 -28 -9
-34 -46 -10 -61 -45 -116 -87 -140 -49 -28 -218 -77 -348 -101 -77 -15 -131
-32 -188 -60 -89 -45 -205 -142 -205 -172 0 -34 39 -21 97 31 74 65 178 115
293 140 305 67 358 84 420 137 l41 35 -25 -58 c-22 -50 -50 -82 -178 -206 -84
-82 -170 -160 -190 -174 -48 -34 -104 -41 -164 -20 -86 29 -105 24 -165 -46
-88 -100 -190 -132 -286 -89 -23 11 -78 51 -124 90 -47 42 -109 84 -148 101
-36 17 -77 36 -91 43 -16 7 -38 38 -59 82 -44 90 -54 192 -22 242 39 62 57 67
256 73 l180 6 75 41 c66 37 93 45 230 68 178 31 194 37 285 99 58 39 74 46
117 46 53 0 110 24 145 62 26 27 223 358 223 373 0 21 -17 35 -34 29 -9 -3
-58 -77 -109 -163 -50 -86 -109 -173 -129 -193 -65 -65 -144 -68 -210 -9 l-30
27 73 70 c41 39 111 104 155 145 83 75 107 119 65 119 -24 0 -68 -35 -219
-177 -131 -122 -155 -137 -241 -148 l-53 -7 50 65 c121 158 129 371 19 485
-57 60 -147 100 -304 136 -52 12 -65 12 -80 1 -29 -22 -1 -38 112 -69 182 -50
259 -108 285 -216 22 -93 -18 -240 -83 -308 -55 -58 -89 -71 -442 -177 -164
-50 -230 -91 -403 -257 -132 -126 -199 -168 -305 -190 -86 -18 -92 -9 -92 145
0 115 2 127 33 200 35 86 40 141 19 203 -8 22 -17 52 -21 68 l-7 30 44 -41
c97 -89 170 -106 443 -101 172 3 193 5 234 25 75 38 377 269 383 294 15 57
-28 35 -221 -110 -220 -167 -209 -163 -475 -150 -190 9 -205 11 -257 37 -100
50 -122 111 -136 379 l-7 133 89 -31 c150 -51 306 -91 360 -92 93 -2 254 98
312 193 46 77 60 135 71 295 5 77 15 152 21 167 8 16 57 58 119 101 143 100
144 101 189 86 58 -18 160 -72 237 -124 112 -75 154 -91 170 -65 12 19 -11 40
-120 110 -124 79 -164 100 -250 132 -67 26 -72 35 -93 168 -15 101 -54 174
-144 264 -42 44 -76 81 -75 82 1 1 30 20 65 42 105 68 121 70 281 42 54 -9 67
-9 79 4 25 24 0 42 -77 55 -150 24 -236 9 -332 -60 -17 -12 -32 -19 -35 -16
-8 8 17 329 27 349 10 19 103 50 262 89 l97 23 35 -34 c28 -27 105 -154 105
-173 0 -3 -20 3 -45 14 -31 14 -56 18 -76 14 -28 -6 -30 -9 -24 -38 8 -36 19
-47 123 -118 81 -56 172 -143 215 -205 45 -67 45 -98 -2 -204 -55 -123 -54
-130 10 -130 27 0 81 5 119 11 37 7 80 9 94 5 15 -4 54 -31 87 -62 59 -54 81
-62 87 -32 4 22 -72 114 -111 134 -35 19 -133 24 -204 11 l-43 -7 22 52 c60
147 50 187 -82 335 -83 94 -90 105 -90 144 0 32 -14 69 -61 158 -33 64 -72
128 -86 143 -43 45 -75 45 -259 -1 -92 -22 -169 -39 -171 -37 -2 1 27 48 63
102 l66 99 -4 81 c-3 55 -10 91 -22 109 -24 36 -41 27 -39 -21 6 -138 5 -150
-10 -179 -9 -16 -27 -43 -40 -58 l-24 -29 -26 44 c-34 57 -82 102 -101 95 -26
-10 -19 -33 29 -98 38 -51 45 -69 45 -106 0 -97 -23 -439 -30 -452 -10 -19
-47 47 -95 169 -21 52 -46 107 -57 123 -29 41 -81 63 -198 82 -140 23 -150 28
-150 64 0 55 20 80 89 112 76 36 191 108 191 119 0 5 3 15 6 24 13 33 -40 15
-151 -49 -62 -36 -115 -65 -118 -65 -11 0 5 33 35 74 35 50 35 56 0 56 -32 0
-75 -39 -91 -83 -6 -16 -11 -59 -11 -96 0 -41 -8 -90 -19 -122 -31 -90 -143
-290 -190 -338 -51 -55 -47 -59 -82 105 -17 82 -23 143 -24 244 0 129 1 138
29 193 23 47 42 69 101 113 81 59 105 87 105 121 0 43 -43 38 -68 -9 -7 -13
-45 -45 -84 -72 -77 -53 -88 -52 -88 12 0 45 42 86 110 106 93 28 168 18 378
-48 110 -35 172 -45 172 -28 0 25 -37 46 -141 81 -154 53 -230 65 -355 58 -56
-4 -109 -10 -119 -13 -16 -7 -18 -2 -13 59 7 78 39 152 76 172 33 17 32 17
112 5z m1392 -608 c27 -15 147 -123 268 -240 182 -176 232 -231 285 -312 36
-54 65 -101 65 -104 0 -3 -20 14 -44 37 -23 23 -83 64 -131 91 -112 62 -158
110 -220 227 -74 138 -134 210 -261 306 -41 31 -18 28 38 -5z m-1105 -244
c136 -25 163 -43 189 -121 46 -141 123 -255 258 -384 121 -115 153 -179 180
-369 l6 -42 -115 -86 -115 -86 0 49 c0 53 -13 72 -36 50 -9 -10 -17 -65 -24
-184 -21 -344 -33 -390 -120 -475 -71 -69 -165 -114 -238 -113 -71 1 -389 110
-409 139 -12 19 -33 246 -33 366 0 37 5 90 11 118 11 50 11 50 87 87 147 72
241 190 331 420 47 118 50 120 160 94 83 -20 141 -20 141 -1 0 18 -41 39 -110
55 -121 29 -114 19 -107 151 6 107 -2 164 -23 164 -17 0 -30 -57 -30 -129 0
-97 -21 -167 -106 -359 -73 -164 -112 -222 -186 -280 -56 -42 -124 -79 -133
-71 -7 8 -35 383 -35 474 0 117 12 148 85 222 49 50 76 90 125 186 33 67 68
128 77 135 22 16 36 16 170 -10z m1974 -1387 c54 -146 51 -346 -8 -481 l-18
-42 -34 47 c-39 54 -115 116 -185 152 -28 14 -53 27 -54 28 -2 2 19 33 47 69
79 104 121 187 168 336 7 23 60 -45 84 -109z m-119 -973 c-6 -33 -23 -84 -37
-115 -26 -58 -84 -142 -97 -143 -5 0 -8 16 -8 36 0 19 -5 55 -11 80 -11 42
-10 46 11 61 12 9 38 50 57 92 20 42 45 86 57 99 l21 24 9 -38 c6 -24 5 -59
-2 -96z m-886 10 l37 -32 -41 -36 c-22 -20 -58 -42 -79 -48 -96 -29 -283 -54
-408 -55 -113 -1 -155 3 -273 29 -13 2 -20 9 -17 14 6 9 201 73 365 120 65 19
156 29 347 38 24 2 42 -7 69 -30z m672 -161 c14 -11 16 -113 3 -170 -9 -38
-102 -210 -155 -284 -44 -64 -70 -77 -145 -75 -35 1 -67 4 -69 7 -3 2 29 36
70 74 108 101 126 139 199 423 5 21 17 38 27 40 21 5 53 -2 70 -15z"/>
<path d="M11515 7023 c3 -15 28 -57 54 -93 45 -60 436 -687 526 -842 38 -65
57 -84 76 -72 5 3 9 14 9 24 0 11 12 26 29 35 43 22 55 66 36 138 -8 32 -22
71 -30 88 -19 36 -121 155 -263 307 -93 101 -108 113 -133 110 -24 -4 -33 2
-55 36 -51 77 -198 281 -208 288 -6 4 -19 8 -30 8 -15 0 -17 -5 -11 -27z m476
-540 c173 -193 199 -231 199 -292 -1 -56 -21 -99 -37 -79 -5 7 -72 119 -148
248 -76 129 -145 245 -153 258 -31 48 2 16 139 -135z"/>
<path d="M11975 5109 c-4 -5 -4 -46 0 -90 4 -49 2 -118 -6 -180 -8 -66 -9
-103 -2 -110 38 -38 81 159 63 288 -12 89 -34 126 -55 92z"/>
<path d="M10164 4130 c-62 -33 -98 -44 -211 -66 -14 -3 -25 -14 -29 -29 -10
-39 -27 -47 -60 -30 -36 19 -81 19 -114 0 -38 -22 -48 -18 -64 19 -11 27 -22
36 -48 40 -18 3 -40 5 -48 4 -41 -4 -64 5 -103 41 -42 39 -91 57 -124 47 -15
-5 -18 -18 -19 -68 -1 -78 -25 -139 -92 -242 -31 -46 -52 -90 -52 -106 0 -30
62 -161 85 -180 22 -18 77 -14 92 6 9 12 13 52 13 114 0 81 3 100 18 113 25
23 48 21 66 -5 12 -17 16 -50 16 -143 0 -128 5 -145 46 -145 41 0 54 12 60 51
8 50 20 58 27 19 9 -45 40 -70 87 -70 35 0 43 5 69 40 l29 40 12 -30 c15 -37
37 -50 84 -50 43 0 74 27 83 71 6 34 23 21 23 -18 0 -30 26 -53 60 -53 42 0
50 23 50 152 0 121 12 158 50 158 36 0 50 -38 50 -133 0 -110 8 -127 60 -127
35 0 43 5 70 42 29 40 60 122 60 159 0 10 -24 54 -54 97 -60 89 -90 160 -107
256 -6 36 -12 66 -13 65 0 0 -33 -18 -72 -39z"/>
<path d="M9343 3444 c-8 -21 54 -221 80 -258 37 -53 59 -56 383 -56 328 0 348
3 385 64 25 40 69 185 69 225 0 28 -3 31 -29 31 -43 0 -80 -37 -94 -94 -15
-56 -37 -77 -61 -57 -9 8 -16 27 -16 43 0 16 -5 38 -10 49 -22 41 -60 10 -60
-49 0 -65 -55 -66 -76 -1 -9 26 -17 34 -35 34 -20 0 -25 -6 -27 -32 -7 -67
-61 -69 -81 -2 -10 33 -16 40 -34 37 -17 -2 -23 -11 -25 -35 -4 -38 -24 -57
-52 -48 -15 5 -20 15 -20 43 0 48 -12 65 -41 60 -20 -2 -24 -9 -27 -45 -3 -47
-22 -68 -51 -58 -14 4 -22 18 -27 43 -8 49 -28 79 -67 102 -39 24 -75 26 -84
4z"/>
<path d="M2434 3336 c-3 -8 -4 -29 -2 -48 l3 -33 3398 -3 c2263 -1 3397 1
3397 8 0 5 -6 10 -13 10 -8 0 -30 18 -50 40 l-36 40 -3346 0 c-2864 0 -3346
-2 -3351 -14z"/>
<path d="M10351 3309 c-19 -21 -40 -39 -48 -39 -7 0 -13 -4 -13 -10 0 -7 1163
-10 3470 -10 l3470 0 0 50 0 50 -3422 -1 -3423 0 -34 -40z"/>
<path d="M2420 1900 l0 -1000 200 0 200 0 2 440 3 440 115 -370 c63 -203 118
-370 121 -370 6 0 30 74 166 502 l78 248 3 -445 2 -445 200 0 200 0 0 1000 0
1000 -218 0 -219 0 -104 -404 c-57 -223 -107 -399 -110 -393 -4 7 -46 165 -94
352 -47 187 -93 364 -101 393 l-15 52 -215 0 -214 0 0 -1000z"/>
<path d="M4028 2890 c-52 -16 -98 -52 -126 -98 l-27 -47 -3 -810 c-2 -563 1
-824 8 -855 16 -65 52 -115 107 -147 l48 -28 355 0 c344 0 356 1 395 22 46 24
75 54 101 103 18 33 19 77 22 865 l2 831 -27 54 c-21 41 -40 62 -77 85 l-49
30 -351 2 c-193 1 -363 -2 -378 -7z m467 -990 l0 -635 -105 0 -105 0 -3 625
c-1 344 0 631 3 638 3 9 31 12 107 10 l103 -3 0 -635z"/>
<path d="M5070 1900 l0 -1000 190 0 190 0 2 381 3 380 89 -348 c49 -191 93
-363 98 -381 l9 -32 209 0 210 0 0 1000 0 1000 -210 0 -210 0 -2 -366 -3 -365
-84 333 c-47 183 -89 348 -93 366 l-9 32 -194 0 -195 0 0 -1000z"/>
<path d="M6388 2890 c-52 -16 -98 -52 -126 -98 l-27 -47 -3 -422 c-3 -463 -1
-486 52 -539 45 -45 89 -54 267 -54 121 0 159 -3 168 -14 8 -9 11 -77 9 -222
l-3 -209 -232 -3 c-213 -2 -233 -4 -233 -20 0 -9 15 -95 32 -190 l33 -173 320
3 c319 3 320 3 370 28 52 26 87 68 107 129 16 52 24 791 8 866 -13 63 -48 111
-97 131 -23 10 -81 14 -201 14 -119 0 -173 4 -185 13 -16 11 -17 33 -15 222
l3 210 248 3 c136 1 247 3 247 5 0 1 -16 85 -35 187 -19 102 -35 186 -35 188
0 6 -649 -1 -672 -8z"/>
<path d="M7266 2722 c-27 -97 -51 -183 -54 -189 -3 -10 27 -13 132 -13 l136 0
0 -810 0 -810 210 0 210 0 0 810 0 810 130 0 c111 0 130 2 130 16 0 8 -20 91
-45 184 -25 93 -45 171 -45 174 0 3 -170 6 -377 6 l-378 0 -49 -178z"/>
<path d="M8260 1900 l0 -1000 384 0 384 0 6 27 c3 16 17 91 31 168 14 77 28
150 30 163 l5 22 -210 0 -210 0 0 210 0 210 165 0 165 0 0 180 0 180 -165 0
-165 0 0 230 0 230 215 0 c165 0 215 3 215 13 0 6 -14 92 -32 190 l-32 177
-393 0 -393 0 0 -1000z"/>
<path d="M9250 1900 l0 -1000 205 0 205 0 0 315 c0 306 1 315 20 315 21 0 22
-3 140 -395 28 -93 56 -185 61 -203 l11 -32 213 0 213 0 -104 313 -103 312 45
13 c65 19 110 69 124 136 17 83 9 1029 -9 1076 -23 59 -61 101 -115 126 l-51
24 -427 0 -428 0 0 -1000z m628 307 l2 -327 -26 -10 c-14 -6 -63 -10 -110 -10
l-84 0 0 340 0 341 108 -3 107 -3 3 -328z"/>
<path d="M10790 1900 l0 -1000 420 0 c398 0 422 1 474 20 67 26 110 72 131
142 22 74 22 715 0 757 -17 35 -71 81 -93 81 -9 0 0 14 26 36 25 21 46 50 52
72 8 24 10 158 8 392 -3 337 -4 357 -24 395 -11 22 -40 54 -63 70 l-43 30
-444 3 -444 3 0 -1001z m628 395 c2 -217 1 -241 -15 -252 -11 -8 -52 -13 -115
-13 l-98 0 0 255 0 256 113 -3 112 -3 3 -240z m-8 -595 c19 -19 20 -33 20
-214 0 -107 -3 -201 -6 -210 -5 -13 -25 -16 -120 -16 l-114 0 0 230 0 230 100
0 c87 0 103 -3 120 -20z"/>
<path d="M11990 1900 l0 -1000 205 0 205 0 0 315 c0 306 1 315 20 315 21 0 22
-3 140 -395 28 -93 56 -185 61 -203 l11 -32 213 0 213 0 -104 313 -103 312 45
13 c65 19 110 69 124 136 17 83 9 1029 -9 1076 -23 59 -61 101 -115 126 l-51
24 -427 0 -428 0 0 -1000z m628 307 l2 -327 -26 -10 c-14 -6 -63 -10 -110 -10
l-84 0 0 340 0 341 108 -3 107 -3 3 -328z"/>
<path d="M13470 2893 c0 -10 -348 -1941 -355 -1970 l-5 -23 208 0 208 0 13 92
c7 51 15 106 18 121 l6 28 131 -3 131 -3 12 -85 c6 -47 14 -100 18 -118 l6
-32 206 0 205 0 -6 33 c-3 17 -82 457 -176 977 -93 520 -172 955 -175 968 -5
22 -5 22 -225 22 -121 0 -220 -3 -220 -7z m303 -1385 l5 -38 -84 0 c-69 0 -84
3 -84 15 0 9 18 152 40 317 22 166 40 307 41 313 1 5 18 -120 39 -280 21 -159
40 -307 43 -327z"/>
<path d="M14380 1900 l0 -1000 205 0 205 0 0 1000 0 1000 -205 0 -205 0 0
-1000z"/>
<path d="M14940 1900 l0 -1000 190 0 190 0 2 381 3 380 89 -348 c49 -191 93
-363 98 -381 l9 -32 209 0 210 0 0 1000 0 1000 -210 0 -210 0 -2 -366 -3 -365
-84 333 c-47 183 -89 348 -93 366 l-9 32 -194 0 -195 0 0 -1000z"/>
<path d="M16258 2890 c-52 -16 -98 -52 -126 -98 l-27 -47 -3 -422 c-3 -463 -1
-486 52 -539 45 -45 89 -54 267 -54 121 0 159 -3 168 -14 8 -9 11 -77 9 -222
l-3 -209 -232 -3 c-213 -2 -233 -4 -233 -20 0 -9 15 -95 32 -190 l33 -173 320
3 c319 3 320 3 370 28 52 26 87 68 107 129 16 52 24 791 8 866 -13 63 -48 111
-97 131 -23 10 -81 14 -201 14 -119 0 -173 4 -185 13 -16 11 -17 33 -15 222
l3 210 248 3 c136 1 247 3 247 5 0 1 -16 85 -35 187 -19 102 -35 186 -35 188
0 6 -649 -1 -672 -8z"/>
<path d="M2314 506 c-3 -8 -4 -29 -2 -48 l3 -33 7389 -3 c5455 -1 7392 1 7402
9 17 14 18 61 2 77 -9 9 -1667 12 -7400 12 -6336 0 -7389 -2 -7394 -14z"/>
</g>
</svg>
